<?xml version="1.0" standalone="no"?>
<!DOCTYPE svg PUBLIC "-//W3C//DTD SVG 20010904//EN"
 "http://www.w3.org/TR/2001/REC-SVG-20010904/DTD/svg10.dtd">
<svg version="1.0" xmlns="http://www.w3.org/2000/svg"
 width="491.000000pt" height="491.000000pt" viewBox="0 0 491.000000 491.000000"
 preserveAspectRatio="xMidYMid meet">
<metadata>
Created by potrace 1.14, written by Peter Selinger 2001-2017
</metadata>
<g transform="translate(0.000000,491.000000) scale(0.100000,-0.100000)"
fill="#000000" stroke="none">
<path d="M2283 3573 c-24 -16 -30 -42 -14 -58 5 -6 12 -20 15 -31 6 -21 3 -21
-85 -23 -51 0 -110 -7 -135 -16 -25 -8 -56 -15 -69 -15 -14 0 -25 -4 -25 -9 0
-5 -8 -11 -17 -15 -56 -18 -171 -133 -189 -188 -4 -10 -10 -18 -15 -18 -5 0
-9 -6 -9 -13 0 -26 -130 -197 -149 -197 -10 0 -24 -7 -32 -16 -18 -22 3 -34
60 -34 l44 0 -22 -24 c-12 -13 -43 -32 -68 -41 l-45 -17 29 -29 c23 -23 40
-30 91 -35 53 -6 60 -9 50 -21 -13 -16 -54 -36 -78 -37 -8 -1 -16 -8 -18 -16
-2 -14 19 -30 61 -46 28 -10 20 -19 -33 -38 -27 -10 -50 -22 -50 -27 0 -5 -18
-9 -39 -9 -22 0 -43 -4 -46 -10 -3 -5 -14 -10 -24 -10 -10 0 -28 -11 -40 -24
-17 -18 -36 -24 -88 -29 -70 -5 -83 -14 -83 -59 0 -23 -5 -28 -23 -28 -32 0
-61 -33 -52 -59 3 -12 11 -21 16 -21 5 0 9 -11 9 -25 0 -19 -5 -25 -21 -25
-21 0 -49 -21 -49 -37 0 -11 -49 -28 -104 -38 -44 -7 -81 -29 -90 -52 -11 -26
23 -53 66 -53 53 0 40 -16 -19 -23 -35 -4 -53 -12 -68 -31 -18 -22 -29 -26
-72 -26 -29 0 -55 -4 -58 -10 -3 -5 -16 -10 -29 -10 -29 0 -60 -33 -52 -57 4
-13 -1 -21 -17 -28 -22 -10 -37 -55 -18 -55 6 0 11 -4 11 -10 0 -5 -17 -10
-38 -10 -21 0 -42 -3 -46 -7 -4 -5 -24 -13 -43 -18 -39 -11 -68 -44 -45 -52
19 -7 14 -27 -10 -38 -22 -9 -27 -29 -17 -64 2 -8 -9 -18 -31 -26 -41 -14 -56
-51 -29 -75 29 -25 32 -54 6 -65 -12 -6 -23 -18 -25 -27 -3 -15 4 -18 37 -18
22 0 43 5 46 10 3 6 23 10 44 10 20 0 42 5 48 11 7 7 15 2 27 -15 15 -24 22
-26 90 -26 61 0 76 -3 91 -20 11 -12 33 -28 51 -36 26 -12 32 -21 31 -42 -2
-24 2 -27 31 -30 36 -4 47 22 12 31 -11 3 -20 10 -20 16 0 7 27 11 73 11 75 1
141 22 101 33 -10 3 -66 9 -124 13 l-104 6 29 24 c17 13 36 24 43 24 6 0 12 7
12 15 0 17 -31 20 -46 5 -5 -5 -56 -10 -114 -12 -103 -3 -105 -3 -103 19 2 21
-2 22 -64 25 -42 2 -68 8 -71 16 -2 8 9 12 37 12 22 0 42 4 45 9 3 4 24 11 46
14 72 9 101 57 35 57 -47 0 -44 14 6 26 52 12 47 28 -11 31 -25 1 -65 6 -89
10 l-44 8 49 14 c119 33 132 53 38 61 l-59 5 40 8 c22 4 59 10 83 13 27 4 42
11 42 20 0 8 10 14 25 14 14 0 25 4 25 9 0 12 -26 32 -33 25 -3 -4 -14 -3 -24
1 -16 7 -15 9 7 15 14 5 43 9 65 9 22 1 51 8 65 16 l25 15 -22 6 c-13 3 -23
11 -23 16 0 6 -11 7 -26 4 -14 -4 -35 -3 -47 1 -41 14 114 28 190 17 50 -7 58
8 16 28 -15 7 -28 18 -28 23 0 14 175 35 197 24 9 -5 33 -9 52 -9 44 0 46 -10
6 -33 -16 -10 -30 -23 -30 -28 0 -20 57 -59 85 -59 8 0 15 -7 15 -15 0 -18 39
-35 81 -35 31 0 39 14 14 24 -21 8 -19 23 5 29 11 3 20 10 20 16 0 7 -27 11
-74 11 -41 0 -78 4 -81 10 -3 5 -2 10 3 10 5 0 12 9 15 20 3 12 14 20 25 20
51 0 70 30 32 50 -22 12 -44 5 -35 -11 9 -13 -6 -11 -35 6 -14 8 -37 14 -52
15 -39 0 -36 25 7 52 46 30 47 51 3 36 -18 -6 -40 -17 -48 -24 -11 -9 -36 -11
-93 -7 -42 3 -77 9 -77 13 0 19 34 32 99 37 39 3 71 10 71 14 0 5 25 9 55 9
42 0 55 3 55 15 0 11 -11 15 -40 15 -67 0 -44 19 27 22 42 2 68 8 71 16 2 6
-2 12 -10 12 -7 0 -31 5 -53 11 l-39 11 33 14 c28 12 31 16 21 29 -7 8 -21 15
-31 15 -11 0 -19 5 -19 10 0 6 10 10 22 10 30 0 99 32 95 44 -2 6 -16 12 -30
14 -60 7 -10 31 73 35 42 2 52 -13 20 -30 -39 -20 -46 -43 -19 -64 28 -22 61
-24 90 -6 17 10 22 9 33 -5 17 -23 28 -23 43 2 10 15 10 21 0 27 -12 7 -18 8
-74 11 -29 2 -31 3 -20 27 11 23 18 25 74 25 34 0 65 -4 68 -10 14 -23 92 3
118 40 7 10 25 22 39 25 32 8 46 35 19 35 -44 0 -79 -13 -84 -31 -3 -10 -13
-22 -24 -25 -10 -3 -26 -10 -35 -15 -30 -15 -39 -10 -36 19 2 17 8 26 17 24
22 -5 61 7 61 18 0 6 -9 10 -19 10 -11 0 -22 4 -26 10 -3 5 20 10 56 12 39 2
64 8 67 16 2 6 -3 12 -12 12 -9 0 -16 5 -16 11 0 6 12 9 27 7 21 -2 32 -12 45
-39 9 -19 23 -41 32 -48 20 -17 9 -41 -19 -41 -13 0 -26 -4 -29 -9 -4 -5 -24
-12 -46 -16 -22 -4 -40 -10 -40 -14 0 -4 -20 -15 -45 -25 -81 -34 -82 -52 -9
-130 56 -61 85 -123 49 -110 -17 7 -85 -14 -103 -32 -19 -19 5 -68 36 -72 26
-4 28 3 7 24 -8 9 -15 19 -15 24 0 9 78 25 86 17 3 -2 -2 -24 -10 -48 -20 -56
-20 -98 -1 -136 32 -63 81 -83 131 -53 l31 20 13 -47 c18 -72 19 -73 30 -73 5
0 10 10 10 23 0 13 7 32 15 43 14 19 14 19 15 -3 0 -12 4 -24 9 -28 5 -3 12
-18 16 -34 3 -16 13 -35 21 -42 17 -14 54 -86 54 -105 0 -6 7 -15 16 -18 14
-5 15 4 10 81 -3 49 -3 81 0 73 4 -8 18 -27 32 -42 27 -29 48 -30 101 -2 14 8
32 14 39 14 6 0 12 5 12 10 0 6 11 10 25 10 14 0 25 4 25 9 0 7 48 21 178 51
50 11 80 7 55 -8 -6 -4 -14 -29 -18 -57 -9 -63 -19 -82 -47 -90 -28 -9 -88
-64 -88 -82 0 -7 -4 -13 -9 -13 -5 0 -12 -8 -14 -17 -3 -10 -5 -3 -6 15 -1 36
-7 39 -32 16 -10 -9 -26 -14 -36 -12 -14 3 -11 8 18 28 37 26 44 59 8 40 -13
-7 -25 -7 -38 0 -11 5 -40 10 -66 10 -38 0 -45 3 -43 18 2 11 -3 17 -17 17
-15 0 -21 -8 -23 -29 -3 -23 0 -28 12 -23 10 4 16 1 16 -8 0 -11 12 -15 41
-15 35 0 40 -2 34 -19 -7 -24 30 -61 62 -61 23 0 43 -26 43 -54 0 -9 -7 -16
-15 -16 -8 0 -15 -4 -15 -10 0 -5 -39 -11 -87 -12 -73 -3 -88 -6 -91 -20 -3
-15 7 -17 76 -16 102 0 119 -5 166 -54 41 -43 45 -44 140 -22 39 9 31 -18 -10
-30 -16 -4 -37 -12 -46 -17 -33 -17 -121 -10 -148 11 -30 23 -50 25 -50 5 0
-8 4 -15 8 -15 5 0 28 -16 51 -36 40 -35 44 -36 79 -26 20 6 66 13 101 16 35
2 67 9 70 14 3 5 41 13 83 17 43 3 80 11 84 16 3 5 18 9 34 9 15 0 30 5 32 12
2 6 32 13 69 16 35 2 68 8 74 13 5 5 21 9 36 9 38 0 78 17 85 35 10 26 -4 61
-30 73 -18 8 -23 16 -19 31 4 16 1 21 -13 21 -21 0 -104 -39 -104 -48 0 -8 72
-32 94 -32 7 0 19 -7 26 -15 10 -12 9 -15 -7 -15 -10 0 -23 -4 -28 -9 -6 -5
-42 -12 -80 -16 -67 -6 -71 -5 -94 19 -28 30 -88 38 -77 10 3 -9 6 -18 6 -20
0 -2 7 -4 16 -4 11 0 14 -5 10 -16 -3 -9 -6 -18 -6 -20 0 -2 -7 -4 -15 -4 -9
0 -12 6 -9 15 9 22 -17 27 -67 15 -79 -20 -96 -22 -104 -10 -4 6 2 21 12 33
11 12 29 42 40 67 21 45 39 59 116 89 15 6 32 21 38 33 8 19 18 23 55 24 24 0
46 3 48 5 2 2 6 22 9 43 5 30 3 36 -5 28 -16 -16 -60 -15 -83 2 -14 10 -25 11
-38 5 -9 -6 -21 -8 -26 -5 -12 8 -28 -13 -36 -47 -4 -15 -13 -27 -20 -27 -8 0
-16 -14 -20 -31 l-7 -31 -14 28 c-8 15 -12 34 -9 42 3 8 0 21 -6 29 -10 11 -5
22 26 53 22 22 44 40 51 40 7 0 14 7 18 15 3 9 18 15 40 15 19 0 38 5 41 10
15 24 61 10 100 -30 21 -22 34 -40 27 -40 -8 0 -12 -18 -12 -52 0 -29 4 -48 8
-43 16 23 73 45 113 45 l44 0 -25 -25 c-16 -16 -45 -28 -80 -35 -66 -13 -83
-26 -49 -39 24 -10 24 -10 2 -10 -16 -1 -23 -7 -23 -21 0 -15 7 -20 28 -20 36
0 92 27 92 45 0 7 17 23 37 35 37 22 41 22 128 2 l40 -10 -46 -1 c-53 -1 -71
-22 -36 -40 12 -6 46 -12 76 -13 72 -4 76 -23 9 -34 -29 -5 -52 -13 -52 -19 2
-18 68 -44 114 -45 25 0 54 -7 64 -15 18 -14 11 -15 -71 -15 -86 0 -128 -13
-86 -26 10 -3 26 -10 35 -15 10 -5 30 -9 45 -10 l28 -1 -30 -13 c-36 -17 -81
-19 -90 -5 -3 6 -26 10 -51 10 -59 0 -60 -25 -1 -41 23 -6 48 -13 55 -15 6 -2
12 -10 12 -17 0 -17 -73 -32 -78 -17 -2 6 -9 10 -15 10 -7 0 -25 7 -41 15 -33
18 -60 4 -51 -25 5 -17 -17 -50 -33 -50 -23 1 -88 30 -98 45 -12 16 -14 16
-28 2 -9 -9 -16 -22 -16 -31 0 -22 -46 -54 -90 -61 -32 -5 -49 -2 -83 17 -41
24 -43 24 -83 9 l-42 -16 25 -19 c14 -10 21 -22 16 -26 -4 -4 -48 -4 -98 0
-49 4 -97 4 -105 -1 -13 -7 -12 -8 3 -9 20 0 22 -13 5 -28 -21 -16 -148 -21
-148 -5 0 16 -125 19 -135 3 -8 -13 -52 -13 -60 0 -4 6 6 10 22 10 31 1 68 41
59 66 -8 21 -36 17 -36 -5 0 -25 -67 -43 -150 -39 -92 4 -87 25 18 79 33 18
27 27 -20 31 -36 2 -44 7 -46 26 -4 25 -24 29 -42 7 -9 -11 -33 -15 -85 -15
-99 0 -121 26 -50 60 l30 14 -29 4 c-41 5 -80 -26 -84 -68 l-3 -32 -47 6 c-26
4 -67 10 -91 14 l-44 7 26 14 c40 21 36 44 -5 36 -18 -4 -37 -11 -43 -16 -13
-13 -99 -11 -113 3 -15 15 28 38 70 38 19 0 28 4 26 13 -6 16 -67 22 -81 8
-16 -16 -92 -14 -106 3 -7 8 -23 17 -37 20 -17 5 -24 12 -20 21 4 11 -2 15
-24 15 -25 0 -30 -4 -30 -23 0 -30 18 -47 50 -47 24 -1 64 -23 66 -38 5 -41
53 -66 114 -60 25 2 40 -1 40 -8 0 -6 10 -16 23 -22 22 -11 22 -11 -4 -11 -14
-1 -34 -10 -45 -22 -16 -18 -28 -20 -85 -17 -37 2 -74 10 -83 17 -15 13 -13
16 21 32 40 19 33 23 -28 20 -20 -2 -40 2 -44 8 -3 6 -23 11 -43 11 -43 0 -82
9 -82 19 0 4 16 13 35 21 49 19 47 45 -2 35 -21 -4 -42 -13 -46 -21 -4 -8 -14
-14 -21 -14 -20 0 -28 -30 -14 -47 23 -28 -29 -41 -101 -27 -31 6 -31 7 -10
18 62 31 6 52 -115 43 -39 -3 -64 -3 -56 0 63 23 62 23 50 38 -9 11 -44 15
-143 18 -86 2 -124 6 -109 11 26 10 57 62 42 71 -5 3 -33 9 -61 12 -51 6 -51
6 -44 -18 4 -13 12 -27 18 -31 7 -4 7 -11 -2 -22 -7 -8 -11 -27 -9 -43 3 -28
3 -28 86 -31 76 -3 82 -4 82 -24 0 -11 8 -27 17 -34 21 -16 99 -19 108 -4 10
15 35 12 35 -5 0 -11 -11 -15 -43 -15 -32 0 -53 -7 -80 -28 -43 -32 -46 -50
-13 -81 22 -21 32 -23 88 -19 108 8 180 60 132 95 -16 11 -12 13 30 13 37 0
47 -3 43 -14 -13 -34 71 -67 138 -54 22 4 93 8 158 8 105 0 122 -2 148 -21 23
-16 41 -20 79 -17 38 2 50 0 50 -11 0 -36 95 -56 133 -27 27 20 21 26 -28 26
-35 0 -43 3 -39 15 4 8 14 15 24 15 10 0 23 6 29 14 9 11 4 15 -26 21 -24 4
-39 3 -41 -4 -5 -16 -105 -13 -138 4 -26 13 -27 15 -7 15 12 0 25 4 28 10 3 5
31 10 61 10 41 0 54 4 54 15 0 11 12 15 49 15 28 0 53 5 56 10 8 13 52 13 60
0 3 -5 0 -10 -8 -10 -7 0 -24 -11 -37 -25 -19 -20 -21 -27 -10 -40 7 -8 19
-15 27 -15 19 0 28 -27 13 -45 -6 -7 -10 -26 -8 -42 6 -54 121 -81 213 -49 35
13 43 13 64 -1 16 -10 37 -13 70 -9 25 3 69 7 98 9 37 2 59 9 75 24 21 20 30
22 75 14 62 -9 155 2 187 22 28 19 76 11 76 -12 0 -17 15 -27 69 -48 30 -11
89 6 103 30 6 12 3 22 -11 36 -11 11 -17 22 -13 25 3 3 -2 6 -11 6 -19 0 -23
20 -4 21 6 0 31 0 53 -1 23 -1 45 3 49 9 3 6 17 11 30 11 21 0 24 -4 19 -28
-5 -23 -1 -30 21 -40 39 -18 108 -15 181 9 71 23 86 40 60 68 -16 18 -12 19
118 23 125 3 137 5 160 27 14 13 26 33 28 45 3 19 11 22 86 27 46 4 88 11 95
18 16 16 82 14 97 -4 18 -22 170 -21 217 2 19 9 37 22 40 30 4 10 40 13 164
13 99 0 159 4 159 10 0 6 6 10 14 10 7 0 19 7 26 15 11 13 9 19 -8 38 l-21 22
35 23 c19 12 34 29 34 36 0 25 -55 56 -98 56 -23 0 -43 4 -47 9 -9 16 -66 41
-92 41 -20 0 -22 4 -17 26 5 18 1 29 -12 40 -18 13 -18 15 9 35 15 11 27 27
27 34 0 23 -61 45 -151 55 -46 5 -101 12 -121 16 -37 6 -49 19 -26 26 21 7 0
37 -39 54 -41 18 -42 16 25 39 32 11 25 44 -13 66 -16 10 -51 18 -77 18 l-48
1 0 69 c0 39 -4 73 -10 76 -5 3 -10 15 -10 25 0 10 -6 31 -14 47 -8 15 -33 69
-57 118 -23 50 -57 110 -75 135 -70 98 -117 186 -119 220 -1 20 -7 46 -14 58
-10 19 -9 25 12 45 34 32 40 57 21 78 -10 11 -24 19 -32 19 -10 0 -12 7 -8 24
3 14 3 32 0 40 -8 20 -62 21 -88 1 -11 -8 -31 -15 -46 -15 -14 0 -30 -8 -38
-20 -7 -11 -20 -20 -31 -20 -26 0 -59 -32 -67 -66 -4 -16 -11 -34 -16 -41 -7
-8 2 -15 31 -24 23 -7 46 -18 52 -25 14 -18 7 -65 -11 -74 -8 -4 -25 -12 -38
-19 -12 -6 -48 -14 -80 -17 -46 -5 -60 -3 -71 10 -12 15 -11 20 10 44 38 42
49 69 49 112 0 29 4 40 15 40 8 0 15 5 15 10 0 6 7 10 15 10 23 0 18 16 -10
34 -26 17 -65 92 -65 126 0 11 8 24 18 27 26 10 81 56 76 64 -2 4 -22 10 -44
14 -45 8 -103 57 -134 115 -43 81 -199 203 -254 198 -45 -3 -92 3 -92 13 0 6
9 24 21 40 39 55 4 98 -53 64 -39 -22 -58 -40 -58 -53 0 -5 -6 -15 -14 -21
-12 -10 -18 -7 -30 18 -15 28 -65 72 -83 70 -4 0 -18 -7 -30 -16z m472 -239
c41 -27 29 -73 -15 -59 -28 9 -45 42 -29 61 14 17 14 17 44 -2z m-787 -71 c2
-18 -2 -38 -8 -45 -5 -7 -24 -32 -40 -55 -43 -61 -100 -57 -100 7 0 49 78 132
120 128 20 -2 26 -9 28 -35z m712 -14 c0 -24 -23 -21 -28 4 -2 10 3 17 12 17
10 0 16 -9 16 -21z m-606 -34 c8 -23 -4 -45 -25 -45 -10 0 -19 5 -19 10 0 6
-7 10 -15 10 -18 0 -19 12 -3 28 17 17 55 15 62 -3z m303 -3 c14 -23 1 -47
-21 -39 -23 9 -20 57 3 57 4 0 11 -8 18 -18z m63 3 c0 -8 -4 -15 -9 -15 -13 0
-22 16 -14 24 11 11 23 6 23 -9z m140 -15 c29 -25 31 -30 14 -30 -11 0 -24 -4
-29 -9 -6 -5 -25 -12 -44 -16 -34 -7 -34 -7 -17 16 9 13 16 34 16 46 0 31 18
28 60 -7z m-450 -10 c0 -5 -4 -10 -9 -10 -6 0 -13 5 -16 10 -3 6 1 10 9 10 9
0 16 -4 16 -10z m133 -17 c6 -16 16 -31 21 -34 21 -16 -4 -39 -43 -39 -69 0
-73 6 -38 55 18 24 35 44 40 44 4 1 13 -11 20 -26z m497 -68 c0 -8 -7 -15 -15
-15 -8 0 -15 7 -15 15 0 8 7 15 15 15 8 0 15 -7 15 -15z m-86 -3 c7 -11 -29
-29 -74 -36 -71 -11 -74 -11 -78 7 -3 13 3 17 25 17 15 0 35 5 43 10 19 12 77
13 84 2z m-444 -77 c0 -9 -9 -15 -25 -15 -24 0 -32 10 -18 23 12 13 43 7 43
-8z m-89 -19 c-6 -8 -24 -16 -39 -19 -15 -3 -39 -9 -54 -13 -39 -9 -64 2 -48
21 12 14 43 20 114 23 32 2 36 0 27 -12z m323 -51 c16 -29 66 -72 106 -92 50
-24 148 -21 199 5 28 15 41 18 44 9 3 -8 13 -4 29 11 32 29 39 28 73 -8 23
-24 29 -39 29 -71 -1 -35 -9 -48 -50 -90 -26 -27 -64 -54 -84 -60 -19 -6 -44
-14 -55 -19 -19 -9 -65 -19 -185 -42 -147 -27 -506 -19 -572 13 -14 8 -31 22
-37 31 -13 22 -27 118 -14 103 13 -16 62 -39 69 -32 4 3 -1 22 -10 41 -9 19
-16 42 -16 51 0 15 3 15 28 -2 91 -61 177 -69 256 -24 63 36 104 92 110 151 3
25 5 46 5 48 1 2 15 2 32 0 19 -2 36 -11 43 -23z m828 -40 c-7 -37 5 -60 22
-46 10 9 16 9 21 1 9 -15 -23 -63 -38 -56 -7 3 -19 9 -27 12 -9 3 -20 15 -25
27 -6 12 -18 23 -28 25 -14 3 -18 -1 -15 -20 2 -15 -5 -30 -21 -42 -23 -19
-24 -19 -56 -1 -30 16 -32 20 -23 41 12 27 19 29 35 13 7 -7 17 -2 32 20 12
16 27 28 34 25 7 -2 21 2 32 10 11 9 30 16 41 16 17 0 20 -5 16 -25z m9 -161
l24 -26 -24 -19 c-27 -22 -65 -34 -85 -26 -7 3 -16 18 -20 32 -15 60 59 88
105 39z m-117 -117 c8 -12 7 -22 -2 -37 -6 -11 -12 -27 -12 -36 0 -17 -27
-107 -41 -135 -4 -9 -10 -38 -14 -65 -13 -98 -24 -105 -80 -51 -25 24 -33 39
-28 55 7 27 -25 42 -112 51 -43 5 -59 10 -57 20 1 7 -4 24 -13 37 -12 19 -24
24 -60 24 -25 0 -45 2 -45 4 0 15 14 36 24 36 7 0 23 11 36 25 14 15 35 25 52
25 28 0 28 0 28 -65 l0 -65 31 0 c59 0 122 45 90 64 -5 3 -11 21 -13 39 -3 33
-2 34 42 47 25 6 68 20 95 31 56 20 64 20 79 -4z m146 8 c0 -8 5 -15 10 -15 6
0 10 -5 10 -12 0 -11 107 -187 120 -198 4 -3 9 -12 12 -20 4 -12 -4 -15 -42
-15 -42 0 -55 -6 -96 -40 -26 -23 -50 -47 -54 -55 -4 -8 -12 -25 -18 -37 -15
-28 -16 -110 -2 -118 6 -3 10 -15 10 -26 0 -24 25 -57 74 -96 23 -19 92 -16
135 6 21 11 52 36 69 55 17 20 34 36 37 36 12 0 -9 -95 -29 -134 -16 -30 -31
-43 -62 -53 -39 -13 -42 -17 -47 -58 -4 -25 -4 -58 -1 -75 6 -26 4 -30 -15
-30 -12 0 -21 -6 -21 -15 0 -16 12 -18 45 -9 30 8 50 57 35 85 -11 19 -5 28
61 95 41 41 82 74 93 74 28 0 96 -22 96 -31 0 -4 -20 -11 -45 -15 -25 -3 -48
-10 -51 -15 -3 -5 -16 -9 -28 -9 -13 0 -29 -7 -36 -15 -10 -13 -9 -15 9 -15
11 0 21 -4 21 -10 0 -5 25 -10 56 -10 40 0 55 -4 52 -12 -3 -7 -18 -15 -34
-16 -38 -5 -59 -21 -44 -36 11 -11 33 -14 245 -37 61 -6 116 -17 124 -23 15
-12 -3 -16 -127 -34 -54 -8 -96 -32 -55 -32 12 0 25 -4 28 -10 3 -5 37 -10 76
-10 55 0 69 -3 69 -15 0 -8 -9 -15 -19 -15 -11 0 -23 -4 -26 -10 -3 -5 -15
-10 -26 -10 -10 0 -19 -7 -19 -15 0 -12 14 -15 65 -15 36 0 73 -4 83 -9 9 -6
34 -13 55 -16 38 -6 52 -25 18 -25 -11 0 -23 -5 -26 -10 -3 -6 -25 -10 -48 -9
-52 1 -107 -10 -107 -22 0 -11 30 -17 105 -22 54 -4 174 -43 175 -58 0 -3 -60
-9 -132 -12 -118 -6 -134 -4 -145 11 -29 40 -34 44 -49 31 -11 -9 -11 -15 -3
-25 28 -34 -21 -45 -61 -14 -30 24 -50 25 -50 5 0 -9 -6 -15 -12 -14 -7 2 -46
-3 -87 -10 -42 -8 -95 -10 -123 -7 -47 7 -49 6 -43 -14 6 -17 2 -20 -29 -20
-19 0 -38 -4 -41 -10 -3 -5 -24 -10 -45 -10 -21 0 -42 5 -45 10 -3 6 -15 10
-26 10 -20 0 -26 15 -9 25 6 3 10 14 10 24 0 13 10 20 30 25 17 3 41 16 54 29
l23 24 19 -23 c17 -21 27 -23 114 -23 63 0 109 5 135 16 22 8 60 15 85 14 91
-3 148 42 103 81 -33 28 -113 48 -113 28 0 -5 7 -10 15 -10 8 0 15 -4 15 -10
0 -5 6 -10 14 -10 7 0 19 -6 25 -14 9 -11 5 -15 -20 -20 -47 -9 -54 -8 -79 14
-27 23 -70 27 -70 6 0 -8 7 -16 15 -20 26 -10 16 -24 -22 -31 -80 -14 -153
-17 -153 -6 0 6 -10 11 -22 11 -21 0 -21 0 -2 14 14 11 16 18 8 26 -9 9 -19 8
-40 -2 -31 -15 -84 -13 -84 3 0 5 -19 9 -42 9 -39 0 -40 1 -25 18 10 10 17 26
17 35 0 15 -33 41 -54 42 -5 0 -10 8 -12 18 -4 26 -24 47 -45 47 -23 0 -25 25
-4 34 8 3 15 12 15 20 0 16 14 14 56 -6 31 -14 78 -6 82 15 3 13 -3 17 -27 17
-17 0 -31 5 -31 11 0 6 -18 9 -44 8 -27 -2 -53 3 -68 13 -13 8 -42 19 -66 23
-51 8 -59 18 -28 35 20 10 28 9 48 -4 13 -9 63 -23 110 -31 88 -15 148 -12
148 9 0 6 3 29 6 51 6 33 4 38 -7 28 -26 -25 -116 -13 -196 25 l-33 15 0 78
c0 83 -21 165 -48 185 -12 9 -14 24 -8 85 3 40 11 78 16 83 6 6 10 20 10 32 0
13 4 25 9 28 5 3 12 26 15 51 4 24 11 47 17 50 5 4 9 26 9 51 0 42 1 44 30 44
17 0 30 4 30 9 0 8 16 16 43 20 4 0 7 -6 7 -14z m-406 -63 c2 -4 7 -24 11 -45
7 -35 6 -37 -19 -37 -23 0 -26 4 -26 38 0 21 3 42 7 45 9 9 21 9 27 -1z
m-1360 -28 c9 -3 16 -12 16 -20 0 -10 -15 -14 -56 -14 -63 0 -72 21 -13 31 19
4 35 7 36 8 1 0 8 -2 17 -5z m1092 -11 c14 -41 89 -187 116 -224 15 -21 28
-42 28 -45 0 -3 23 -32 50 -64 28 -32 47 -60 43 -63 -4 -2 -37 -3 -72 -2 -60
3 -65 5 -114 51 -29 27 -53 52 -55 57 -10 21 -114 -9 -169 -50 -17 -12 -35
-23 -38 -23 -12 0 -119 -101 -158 -149 -56 -70 -69 -89 -94 -143 -10 -21 -21
-38 -25 -38 -5 0 -8 -6 -8 -14 0 -27 -28 -26 -35 2 -6 23 -39 101 -65 153 -5
9 -12 33 -15 53 -4 20 -11 39 -16 42 -5 3 -9 15 -9 28 0 12 -4 26 -9 32 -8 8
-18 59 -38 199 -3 22 -10 43 -16 47 -6 4 -8 10 -4 14 4 4 16 -5 28 -19 23 -30
45 -36 34 -9 -4 9 -11 44 -16 77 -6 33 -15 69 -21 79 -10 18 -7 19 53 11 88
-12 483 -10 544 2 72 15 75 15 81 -4z m-782 -140 c-4 -49 -10 -92 -15 -97 -5
-6 -9 -38 -9 -72 l0 -62 -27 7 c-17 5 -30 17 -36 37 -6 16 -26 49 -46 74 -20
25 -40 51 -46 58 -5 7 -16 19 -23 28 -11 11 -11 18 -2 29 7 8 19 15 26 15 8 0
14 4 14 9 0 9 15 15 105 41 33 10 61 18 63 19 1 0 -1 -38 -4 -86z m926 48 c0
-11 -5 -23 -10 -26 -23 -14 12 -33 71 -39 92 -11 99 -17 41 -35 -64 -20 -57
-39 17 -43 32 -2 56 -8 59 -15 2 -8 -6 -13 -21 -13 -25 0 -52 -22 -40 -33 3
-4 42 -7 86 -7 l80 0 -41 -30 c-22 -16 -45 -37 -50 -46 -9 -16 -12 -16 -39 4
-34 24 -123 125 -123 140 0 5 -7 15 -15 22 -13 11 -75 123 -75 135 0 3 14 5
30 5 23 0 30 -5 30 -19z m723 -144 c23 -26 22 -27 -12 -14 -15 5 -34 19 -40
30 -11 17 -10 18 11 11 13 -4 31 -16 41 -27z m-154 -6 c-13 -11 -27 -20 -31
-21 -4 0 -8 -10 -10 -22 -2 -17 -5 -19 -11 -10 -6 9 3 24 28 48 21 19 40 33
43 30 2 -3 -6 -14 -19 -25z m79 -3 c7 -7 12 -23 12 -36 0 -19 -5 -23 -22 -20
-18 2 -24 11 -26 36 -3 34 13 43 36 20z m70 -45 c16 -16 17 -16 20 0 6 29 20
19 24 -17 3 -24 0 -32 -9 -29 -7 3 -13 9 -13 13 0 5 -10 10 -22 12 -13 2 -24
11 -26 21 -4 22 5 22 26 0z m-138 -11 c0 -18 -49 -62 -70 -62 -5 0 -10 9 -10
19 0 14 5 18 20 14 14 -4 22 2 30 21 11 30 30 35 30 8z m-709 -58 c37 -35 36
-46 -1 -62 -20 -9 -37 -30 -55 -67 -22 -47 -30 -55 -60 -61 -19 -3 -35 -10
-35 -14 0 -4 -11 -11 -25 -14 -26 -7 -97 -37 -191 -82 -28 -13 -56 -24 -62
-24 -7 0 -12 -4 -12 -10 0 -5 -4 -10 -10 -10 -5 0 2 16 15 36 14 20 25 41 25
46 0 11 60 91 72 96 5 2 8 10 8 17 0 7 17 25 38 41 20 16 44 35 52 43 25 25
118 81 134 81 8 0 17 4 20 9 11 17 57 4 87 -25z m-934 4 c-3 -8 -6 -5 -6 6 -1
11 2 17 5 13 3 -3 4 -12 1 -19z m1723 -3 c0 -32 -22 -32 -37 0 -10 23 -9 25
13 25 19 0 24 -5 24 -25z m80 -10 l23 -25 -36 0 c-29 0 -37 4 -37 18 0 39 18
41 50 7z m-434 -7 c18 -6 33 -19 34 -27 0 -9 3 -42 6 -74 9 -89 -35 -190 -86
-197 -57 -8 -76 34 -66 147 5 60 12 83 36 119 35 49 32 48 76 32z m304 -8 c27
-27 26 -30 -20 -30 -32 0 -40 4 -40 18 0 37 29 43 60 12z m-2273 -52 c-3 -8
-6 -5 -6 6 -1 11 2 17 5 13 3 -3 4 -12 1 -19z m709 -9 c18 -37 12 -70 -18 -99
-28 -26 -58 -26 -65 0 -3 11 -9 20 -14 20 -13 0 -11 67 3 90 9 13 24 20 45 20
26 0 36 -6 49 -31z m1094 21 c0 -5 -2 -10 -4 -10 -3 0 -8 5 -11 10 -3 6 -1 10
4 10 6 0 11 -4 11 -10z m573 -15 c18 -13 18 -14 -5 -26 -13 -6 -26 -16 -29
-22 -10 -15 -110 -12 -120 4 -14 22 -11 43 4 32 19 -15 82 -22 98 -11 11 7 11
11 1 15 -6 2 -10 9 -6 14 8 13 36 10 57 -6z m-664 -4 c10 -6 10 -10 1 -16 -7
-4 -19 0 -28 9 -14 13 -14 16 -2 16 8 0 21 -4 29 -9z m-81 -13 c13 -13 -16
-31 -67 -43 -27 -6 -31 -4 -31 14 0 12 6 21 15 21 8 0 15 5 15 10 0 14 53 13
68 -2z m175 -62 l-8 -37 -29 30 -29 30 34 9 c19 5 35 8 37 7 1 -1 -1 -19 -5
-39z m-263 -121 c0 -8 -7 -15 -15 -15 -8 0 -15 7 -15 15 0 8 7 15 15 15 8 0
15 -7 15 -15z m83 -42 c-7 -2 -19 -2 -25 0 -7 3 -2 5 12 5 14 0 19 -2 13 -5z
m391 -93 c25 -10 46 -23 46 -27 0 -10 -49 -33 -71 -33 -9 0 -22 7 -29 15 -7 8
-25 15 -40 15 -36 0 -43 10 -23 32 21 23 60 23 117 -2z m-599 -88 c21 -15 35
-53 35 -95 0 -55 -29 -101 -89 -141 -41 -28 -45 -28 -70 -13 -44 26 -56 61
-42 123 7 30 16 54 20 54 4 0 13 10 20 23 23 43 96 72 126 49z m-1985 -37 c0
-8 -7 -15 -15 -15 -8 0 -15 -4 -15 -10 0 -5 -20 -10 -45 -10 -49 0 -58 10 -22
28 53 26 97 29 97 7z m2160 0 c0 -8 -7 -15 -15 -15 -8 0 -15 7 -15 15 0 8 7
15 15 15 8 0 15 -7 15 -15z m1532 -126 c20 -11 19 -12 -18 -30 -65 -31 -104
-18 -68 22 19 21 55 25 86 8z m-402 -176 c-14 -2 -34 -8 -46 -14 -27 -14 -116
-7 -122 9 -3 9 20 12 95 11 54 -1 87 -4 73 -6z m-565 -56 c44 -8 30 -47 -18
-47 -16 0 -47 -5 -69 -12 -30 -9 -41 -9 -51 1 -9 10 -8 15 7 27 11 8 30 14 42
14 12 0 27 7 34 15 7 9 20 13 29 10 9 -4 20 -7 26 -8z m-2162 -39 c16 -8 25
-19 22 -26 -3 -8 -5 -18 -5 -23 0 -14 -154 -11 -168 3 -9 9 -4 17 21 34 36 26
89 30 130 12z m1967 -3 c0 -19 -24 -29 -47 -20 -16 6 -15 8 7 20 32 18 40 18
40 0z m-1234 -6 c4 -6 -6 -23 -22 -38 -28 -25 -32 -26 -92 -18 -64 9 -71 20
-24 39 61 25 128 33 138 17z m-1120 -38 c5 -5 20 -11 34 -13 l25 -4 -28 -12
c-41 -17 -148 -16 -141 1 10 26 90 46 110 28z m2161 -17 c-3 -3 -12 -4 -19 -1
-8 3 -5 6 6 6 11 1 17 -2 13 -5z m-47 -14 c0 -5 -7 -10 -15 -10 -8 0 -15 5
-15 10 0 6 7 10 15 10 8 0 15 -4 15 -10z m-977 -44 c33 -8 44 -30 27 -51 -16
-19 -145 -20 -179 -1 l-23 13 23 21 c12 12 30 22 40 22 9 0 22 7 29 15 10 12
15 12 33 1 12 -8 35 -17 50 -20z m1157 25 c0 -13 -132 -30 -150 -20 -11 6 -6
8 17 9 17 0 35 5 38 10 8 12 95 13 95 1z m-998 -46 c6 -14 17 -25 25 -25 7 0
13 -4 13 -10 0 -5 -25 -10 -55 -10 -60 0 -67 9 -39 48 20 29 42 28 56 -3z
m603 -36 c5 -5 -6 -9 -28 -9 -35 0 -45 8 -30 23 8 8 43 -1 58 -14z"/>
<path d="M2432 2762 c-50 -20 -82 -46 -82 -67 0 -21 36 -55 58 -55 12 0 10 5
-10 18 -32 19 -36 43 -12 63 19 16 162 15 178 -1 6 -6 2 -17 -9 -30 -30 -33
-8 -35 25 -1 23 22 30 38 28 58 -3 27 -5 28 -68 30 -41 1 -81 -5 -108 -15z"/>
<path d="M3714 1664 c3 -9 6 -18 6 -20 0 -2 8 -4 17 -4 15 0 15 -2 3 -14 -8
-8 -27 -18 -42 -21 -22 -6 -28 -4 -28 9 0 8 -13 22 -29 30 -26 14 -30 14 -41
1 -9 -11 -9 -15 -1 -15 7 0 18 -5 25 -12 11 -10 8 -15 -12 -25 -13 -7 -31 -13
-38 -13 -20 0 -17 -20 4 -21 34 -2 67 3 77 12 5 5 27 9 50 9 67 1 110 54 68
86 -26 20 -67 18 -59 -2z"/>
<path d="M3453 1613 c-13 -2 -23 -11 -23 -19 0 -12 11 -14 53 -12 38 2 52 7
52 18 0 16 -39 22 -82 13z"/>
<path d="M1748 2363 c6 -2 18 -2 25 0 6 3 1 5 -13 5 -14 0 -19 -2 -12 -5z"/>
<path d="M1320 2360 c0 -11 8 -23 18 -26 9 -3 25 -10 35 -15 21 -11 105 -2
124 13 24 19 1 28 -73 28 -43 0 -74 4 -74 10 0 6 -7 10 -15 10 -8 0 -15 -9
-15 -20z"/>
<path d="M1455 2152 c-16 -2 -41 -12 -55 -22 -20 -16 -23 -22 -14 -37 17 -27
42 -28 46 -1 3 20 10 23 51 26 31 2 47 8 47 16 0 15 -30 22 -75 18z"/>
<path d="M1450 2068 c0 -14 8 -18 40 -18 28 0 40 4 40 14 0 9 -14 15 -40 18
-33 3 -40 0 -40 -14z"/>
<path d="M1564 2055 c-8 -20 4 -35 26 -35 23 0 32 13 24 34 -8 20 -43 21 -50
1z"/>
<path d="M1447 1974 c-14 -14 6 -24 49 -24 32 0 44 4 42 13 -5 13 -79 22 -91
11z"/>
<path d="M1523 1922 c-83 -3 -119 -22 -42 -22 31 0 40 -3 36 -14 -8 -21 14
-36 54 -36 37 0 41 6 50 67 1 9 1 9 -98 5z"/>
<path d="M1685 1881 c-3 -5 -1 -12 5 -16 12 -7 30 2 30 16 0 12 -27 12 -35 0z"/>
<path d="M1093 1852 c-16 -2 -23 -10 -23 -27 0 -13 5 -27 10 -30 22 -13 8 -24
-47 -35 -133 -27 -191 -22 -176 16 3 8 -1 14 -11 14 -8 0 -19 -11 -22 -26 -10
-38 18 -53 99 -54 37 0 67 -4 67 -8 0 -4 13 -16 29 -25 22 -13 41 -16 71 -11
22 4 43 10 45 15 6 8 -57 29 -87 29 -30 0 -20 14 25 35 26 12 57 19 82 17 25
-2 48 3 60 12 19 15 18 15 -17 16 -20 0 -48 4 -62 10 -27 10 -35 35 -14 42 19
7 -4 14 -29 10z"/>
<path d="M1712 1817 c-6 -7 -9 -23 -5 -36 5 -18 11 -22 41 -19 34 3 60 28 29
28 -8 0 -17 9 -20 20 -6 23 -29 26 -45 7z"/>
<path d="M1303 1793 c-7 -2 -13 -10 -13 -18 0 -19 21 -32 63 -38 29 -5 37 -2
37 10 0 8 -9 17 -20 20 -11 3 -20 12 -20 19 0 14 -23 17 -47 7z"/>
<path d="M1528 1772 c-44 -27 -35 -72 17 -85 12 -3 7 -5 -15 -6 -19 -1 -53 -8
-75 -15 -34 -12 -40 -19 -43 -45 -4 -39 22 -51 117 -51 59 0 70 -3 91 -25 13
-14 34 -25 46 -25 12 0 30 -3 39 -6 14 -6 13 -10 -10 -34 -15 -16 -25 -36 -23
-46 8 -42 119 -70 170 -43 15 8 22 8 28 -1 10 -16 161 -20 167 -5 4 13 -53 35
-90 35 -15 0 -27 4 -27 8 0 5 -6 17 -14 27 -14 19 -14 19 -35 1 -17 -15 -34
-19 -79 -17 -31 1 -58 4 -60 5 -9 9 13 36 29 36 11 0 22 7 26 16 7 18 -14 35
-34 27 -7 -3 -13 2 -13 11 0 12 -10 16 -42 16 -49 0 -41 18 13 29 18 4 35 13
37 20 4 12 -7 13 -64 6 -79 -9 -131 -9 -191 0 -85 14 -30 40 74 36 52 -2 63 0
72 17 6 11 26 23 45 26 64 12 47 23 -47 30 -51 4 -96 11 -100 15 -10 10 11 28
37 32 11 2 21 10 24 17 5 17 -37 14 -70 -6z"/>
<path d="M1181 1686 c-19 -34 -7 -46 45 -46 49 0 57 11 19 28 -14 6 -25 18
-25 27 0 23 -25 18 -39 -9z"/>
<path d="M1980 1646 c0 -39 108 -74 138 -44 20 20 14 25 -40 31 -28 4 -56 11
-62 17 -15 15 -36 12 -36 -4z"/>
<path d="M1198 1577 c-52 -29 -50 -53 8 -77 47 -20 82 -24 121 -14 34 9 17 24
-27 24 -21 0 -42 5 -45 10 -3 6 -15 10 -26 10 -63 0 36 39 104 41 l32 1 -30
13 c-42 20 -94 17 -137 -8z"/>
<path d="M2150 1580 c0 -23 29 -27 48 -8 19 19 14 28 -18 28 -23 0 -30 -4 -30
-20z"/>
<path d="M2084 1570 c-12 -4 -24 -18 -27 -29 -4 -18 -2 -20 21 -14 28 6 42 20
42 41 0 14 -6 14 -36 2z"/>
<path d="M1455 1521 c-3 -6 -16 -11 -29 -11 -23 0 -56 -28 -56 -47 0 -5 11
-20 25 -33 20 -18 39 -24 98 -28 51 -3 77 -1 82 7 5 8 13 5 26 -11 16 -17 24
-20 36 -12 26 16 26 31 1 39 -24 7 -27 7 -130 19 -42 5 -69 13 -72 22 -4 10 2
14 19 14 13 0 27 5 30 10 3 6 22 10 41 10 24 0 34 4 32 13 -6 15 -94 22 -103
8z"/>
<path d="M4400 1490 c0 -11 7 -20 15 -20 8 0 15 9 15 20 0 11 -7 20 -15 20 -8
0 -15 -9 -15 -20z"/>
<path d="M2318 1373 c6 -2 18 -2 25 0 6 3 1 5 -13 5 -14 0 -19 -2 -12 -5z"/>
<path d="M2230 1307 c0 -18 -43 -37 -85 -37 -24 0 -35 -5 -35 -15 0 -12 14
-15 70 -15 59 0 71 3 80 20 6 12 8 30 5 40 -7 22 -35 27 -35 7z"/>
<path d="M3900 1300 c0 -5 -7 -10 -15 -10 -8 0 -20 -10 -26 -22 -10 -19 -8
-25 20 -50 26 -23 40 -28 85 -28 50 0 108 20 122 41 12 21 -38 59 -77 59 -21
0 -41 5 -44 10 -3 6 -19 10 -36 10 -16 0 -29 -4 -29 -10z m134 -50 c16 -15 -5
-30 -43 -30 -45 0 -89 20 -83 38 4 13 109 6 126 -8z"/>
<path d="M3735 1240 c-4 -7 -1 -16 6 -21 11 -7 10 -9 -3 -9 -10 0 -18 7 -18
16 0 23 -24 11 -28 -14 -4 -28 31 -46 73 -38 44 9 62 30 42 50 -21 21 -63 30
-72 16z"/>
<path d="M3552 1174 c-19 -21 -6 -34 34 -34 37 0 48 23 17 34 -10 3 -22 8 -28
11 -5 2 -16 -2 -23 -11z"/>
<path d="M1031 1090 c-13 -11 -29 -20 -36 -20 -6 0 -20 -9 -30 -20 -17 -18
-17 -21 -1 -45 9 -14 23 -25 31 -25 8 0 15 -4 15 -10 0 -6 33 -10 79 -10 44 0
83 5 86 10 3 6 13 10 20 10 24 0 55 33 55 56 0 25 -47 54 -86 54 -13 0 -26 5
-29 10 -11 17 -79 11 -104 -10z m164 -44 c18 -13 18 -14 -1 -23 -34 -18 -111
-24 -153 -13 -40 10 -56 30 -26 30 8 0 15 5 15 10 0 16 143 12 165 -4z"/>
<path d="M3075 1083 c-36 -8 -80 -27 -94 -41 -11 -11 -11 -17 -1 -38 21 -39
89 -33 180 15 22 12 24 41 3 56 -18 14 -49 17 -88 8z m49 -37 c-3 -8 -17 -16
-32 -19 -15 -2 -35 -8 -46 -12 -13 -6 -17 -4 -14 5 2 7 19 18 38 25 48 17 60
17 54 1z"/>
<path d="M1365 1070 c-3 -5 -15 -10 -25 -10 -19 0 -36 -32 -25 -50 11 -18 101
-12 126 9 23 19 24 19 5 40 -20 22 -70 29 -81 11z m40 -30 c4 -6 -5 -10 -20
-10 -15 0 -24 4 -20 10 3 6 12 10 20 10 8 0 17 -4 20 -10z"/>
</g>
</svg>
